<svg id="visual" viewBox="0 0 900 50" width="900" height="50" xmlns="http://www.w3.org/2000/svg" xmlns:xlink="http://www.w3.org/1999/xlink" version="1.1"><path d="M0 40L21.5 40.3C43 40.7 86 41.3 128.8 39.7C171.7 38 214.3 34 257.2 33.7C300 33.3 343 36.7 385.8 38.8C428.7 41 471.3 42 514.2 41.7C557 41.3 600 39.7 642.8 38.7C685.7 37.7 728.3 37.3 771.2 36.2C814 35 857 33 878.5 32L900 31L900 0L878.5 0C857 0 814 0 771.2 0C728.3 0 685.7 0 642.8 0C600 0 557 0 514.2 0C471.3 0 428.7 0 385.8 0C343 0 300 0 257.2 0C214.3 0 171.7 0 128.8 0C86 0 43 0 21.5 0L0 0Z" fill="#fa7268"></path><path d="M0 28L21.5 29C43 30 86 32 128.8 33.7C171.7 35.3 214.3 36.7 257.2 36C300 35.3 343 32.7 385.8 31.3C428.7 30 471.3 30 514.2 29.2C557 28.3 600 26.7 642.8 28.2C685.7 29.7 728.3 34.3 771.2 36.2C814 38 857 37 878.5 36.5L900 36L900 0L878.5 0C857 0 814 0 771.2 0C728.3 0 685.7 0 642.8 0C600 0 557 0 514.2 0C471.3 0 428.7 0 385.8 0C343 0 300 0 257.2 0C214.3 0 171.7 0 128.8 0C86 0 43 0 21.5 0L0 0Z" fill="#ef5f67"></path><path d="M0 20L21.5 20.7C43 21.3 86 22.7 128.8 23.3C171.7 24 214.3 24 257.2 23.5C300 23 343 22 385.8 23.2C428.7 24.3 471.3 27.7 514.2 28.8C557 30 600 29 642.8 27.5C685.7 26 728.3 24 771.2 22.2C814 20.3 857 18.7 878.5 17.8L900 17L900 0L878.5 0C857 0 814 0 771.2 0C728.3 0 685.7 0 642.8 0C600 0 557 0 514.2 0C471.3 0 428.7 0 385.8 0C343 0 300 0 257.2 0C214.3 0 171.7 0 128.8 0C86 0 43 0 21.5 0L0 0Z" fill="#e34c67"></path><path d="M0 17L21.5 17.8C43 18.7 86 20.3 128.8 21.2C171.7 22 214.3 22 257.2 20.8C300 19.7 343 17.3 385.8 17.5C428.7 17.7 471.3 20.3 514.2 21.2C557 22 600 21 642.8 21C685.7 21 728.3 22 771.2 20.8C814 19.7 857 16.3 878.5 14.7L900 13L900 0L878.5 0C857 0 814 0 771.2 0C728.3 0 685.7 0 642.8 0C600 0 557 0 514.2 0C471.3 0 428.7 0 385.8 0C343 0 300 0 257.2 0C214.3 0 171.7 0 128.8 0C86 0 43 0 21.5 0L0 0Z" fill="#d53867"></path><path d="M0 8L21.5 8.5C43 9 86 10 128.8 10.7C171.7 11.3 214.3 11.7 257.2 11.3C300 11 343 10 385.8 8.8C428.7 7.7 471.3 6.3 514.2 6.2C557 6 600 7 642.8 6.8C685.7 6.7 728.3 5.3 771.2 6.2C814 7 857 10 878.5 11.5L900 13L900 0L878.5 0C857 0 814 0 771.2 0C728.3 0 685.7 0 642.8 0C600 0 557 0 514.2 0C471.3 0 428.7 0 385.8 0C343 0 300 0 257.2 0C214.3 0 171.7 0 128.8 0C86 0 43 0 21.5 0L0 0Z" fill="#c62368"></path></svg>