<svg id="visual" viewBox="0 0 900 100" width="900" height="100" xmlns="http://www.w3.org/2000/svg" xmlns:xlink="http://www.w3.org/1999/xlink" version="1.1"><path d="M0 78L56 78L56 80L113 80L113 71L169 71L169 58L225 58L225 80L281 80L281 69L338 69L338 76L394 76L394 67L450 67L450 76L506 76L506 66L563 66L563 71L619 71L619 63L675 63L675 76L731 76L731 77L788 77L788 79L844 79L844 64L900 64L900 71L900 0L900 0L844 0L844 0L788 0L788 0L731 0L731 0L675 0L675 0L619 0L619 0L563 0L563 0L506 0L506 0L450 0L450 0L394 0L394 0L338 0L338 0L281 0L281 0L225 0L225 0L169 0L169 0L113 0L113 0L56 0L56 0L0 0Z" fill="#626262"></path><path d="M0 40L56 40L56 59L113 59L113 55L169 55L169 35L225 35L225 49L281 49L281 52L338 52L338 46L394 46L394 49L450 49L450 46L506 46L506 33L563 33L563 51L619 51L619 44L675 44L675 36L731 36L731 41L788 41L788 47L844 47L844 51L900 51L900 53L900 0L900 0L844 0L844 0L788 0L788 0L731 0L731 0L675 0L675 0L619 0L619 0L563 0L563 0L506 0L506 0L450 0L450 0L394 0L394 0L338 0L338 0L281 0L281 0L225 0L225 0L169 0L169 0L113 0L113 0L56 0L56 0L0 0Z" fill="#adadad"></path><path d="M0 14L56 14L56 15L113 15L113 34L169 34L169 24L225 24L225 23L281 23L281 36L338 36L338 32L394 32L394 17L450 17L450 34L506 34L506 36L563 36L563 20L619 20L619 24L675 24L675 20L731 20L731 19L788 19L788 22L844 22L844 25L900 25L900 19L900 0L900 0L844 0L844 0L788 0L788 0L731 0L731 0L675 0L675 0L619 0L619 0L563 0L563 0L506 0L506 0L450 0L450 0L394 0L394 0L338 0L338 0L281 0L281 0L225 0L225 0L169 0L169 0L113 0L113 0L56 0L56 0L0 0Z" fill="#ffffff"></path></svg>